<svg width="444" height="111" viewBox="0 0 444 111" fill="none" xmlns="http://www.w3.org/2000/svg">
<path d="M0 2.19727H29.5898C59.5459 2.19727 74.6338 19.8486 74.6338 54.8584C74.6338 90.1611 59.5459 107.886 29.5898 107.886H0V2.19727ZM12.9639 14.0625V96.0205H28.418C50.8301 96.0205 61.4502 82.9102 61.4502 54.9316C61.4502 27.2461 50.7568 14.0625 28.418 14.0625H12.9639ZM160.254 96.0205V107.886H97.8516V2.19727H160.254V14.0625H110.815V48.3398H157.544V59.6924H110.815V96.0205H160.254ZM222.07 107.886H187.5V2.19727H221.704C241.187 2.19727 252.905 11.9385 252.905 28.3447C252.905 39.9902 245.361 49.585 234.741 51.416V52.5146C248.95 53.9062 258.252 64.2334 258.252 78.3691C258.252 96.8994 244.775 107.886 222.07 107.886ZM200.317 13.3301V47.8271H216.797C231.812 47.8271 239.868 41.748 239.868 30.6152C239.868 19.5557 232.251 13.3301 218.774 13.3301H200.317ZM200.317 96.6797H219.287C236.06 96.6797 244.849 90.0879 244.849 77.4902C244.849 65.0391 235.986 58.5938 218.848 58.5938H200.317V96.6797ZM312.817 97.8516C328.198 97.8516 337.134 87.7441 337.134 70.3857V2.19727H350.024V71.1914C350.024 95.5078 336.108 110.083 312.817 110.083C289.526 110.083 275.61 95.5078 275.61 71.1914V2.19727H288.501V70.3857C288.501 87.7441 297.437 97.8516 312.817 97.8516ZM430.664 75.5127V65.1855H406.274V54.126H443.701V76.6113C443.701 96.46 428.76 110.083 407.446 110.083C382.617 110.083 368.262 93.3838 368.262 64.4531V45.6299C368.262 16.6992 382.617 0 407.446 0C429.419 0 443.188 13.4033 443.701 35.3027H430.664C430.078 21.5332 420.703 12.2314 407.227 12.2314C390.161 12.2314 381.299 23.7305 381.299 45.6299V64.4531C381.299 86.3525 390.234 97.8516 407.3 97.8516C421.729 97.8516 430.664 89.3555 430.664 75.5127Z" fill="black"/>
</svg>
