<svg width="1031" height="1031" viewBox="0 0 1031 1031" fill="none" xmlns="http://www.w3.org/2000/svg">
<path d="M1027.18 899.182H3.18198" stroke="white" style="stroke:white;stroke-opacity:1;" stroke-width="9" stroke-miterlimit="10"/>
<path d="M1027.18 771.182H3.18198" stroke="white" style="stroke:white;stroke-opacity:1;" stroke-width="9" stroke-miterlimit="10"/>
<path d="M1027.18 643.182H3.18198" stroke="white" style="stroke:white;stroke-opacity:1;" stroke-width="9" stroke-miterlimit="10"/>
<path d="M1027.18 515.182H3.18198" stroke="white" style="stroke:white;stroke-opacity:1;" stroke-width="9" stroke-miterlimit="10"/>
<path d="M1027.18 387.182H3.18198" stroke="white" style="stroke:white;stroke-opacity:1;" stroke-width="9" stroke-miterlimit="10"/>
<path d="M1027.18 259.182H3.18198" stroke="white" style="stroke:white;stroke-opacity:1;" stroke-width="9" stroke-miterlimit="10"/>
<path d="M1027.18 131.182H3.18198" stroke="white" style="stroke:white;stroke-opacity:1;" stroke-width="9" stroke-miterlimit="10"/>
<path d="M899.182 1027.18V3.18198" stroke="white" style="stroke:white;stroke-opacity:1;" stroke-width="9" stroke-miterlimit="10"/>
<path d="M771.182 1027.18V3.18198" stroke="white" style="stroke:white;stroke-opacity:1;" stroke-width="9" stroke-miterlimit="10"/>
<path d="M643.182 1027.18V3.18198" stroke="white" style="stroke:white;stroke-opacity:1;" stroke-width="9" stroke-miterlimit="10"/>
<path d="M515.182 1027.18V3.18198" stroke="white" style="stroke:white;stroke-opacity:1;" stroke-width="9" stroke-miterlimit="10"/>
<path d="M387.182 1027.18V3.18198" stroke="white" style="stroke:white;stroke-opacity:1;" stroke-width="9" stroke-miterlimit="10"/>
<path d="M259.182 1027.18V3.18198" stroke="white" style="stroke:white;stroke-opacity:1;" stroke-width="9" stroke-miterlimit="10"/>
<path d="M131.182 1027.18V3.18198" stroke="white" style="stroke:white;stroke-opacity:1;" stroke-width="9" stroke-miterlimit="10"/>
<path d="M1027.18 3.18198L3.18198 1027.18" stroke="white" style="stroke:white;stroke-opacity:1;" stroke-width="9" stroke-miterlimit="10"/>
<path d="M1027.18 1027.18L3.18198 3.18198" stroke="white" style="stroke:white;stroke-opacity:1;" stroke-width="9" stroke-miterlimit="10"/>
<path d="M515.182 925.182C741.619 925.182 925.182 741.619 925.182 515.182C925.182 288.745 741.619 105.182 515.182 105.182C288.745 105.182 105.182 288.745 105.182 515.182C105.182 741.619 288.745 925.182 515.182 925.182Z" stroke="white" style="stroke:white;stroke-opacity:1;" stroke-width="9" stroke-miterlimit="10"/>
<path d="M515.182 771.182C656.567 771.182 771.182 656.567 771.182 515.182C771.182 373.797 656.567 259.182 515.182 259.182C373.797 259.182 259.182 373.797 259.182 515.182C259.182 656.567 373.797 771.182 515.182 771.182Z" stroke="white" style="stroke:white;stroke-opacity:1;" stroke-width="9" stroke-miterlimit="10"/>
<path d="M515.182 617.182C571.515 617.182 617.182 571.515 617.182 515.182C617.182 458.849 571.515 413.182 515.182 413.182C458.849 413.182 413.182 458.849 413.182 515.182C413.182 571.515 458.849 617.182 515.182 617.182Z" stroke="white" style="stroke:white;stroke-opacity:1;" stroke-width="9" stroke-miterlimit="10"/>
</svg>
