<?xml version="1.0" encoding="UTF-8"?>
<!--Generator: Apple Native CoreSVG 360-->
<!DOCTYPE svg
PUBLIC "-//W3C//DTD SVG 1.1//EN"
       "http://www.w3.org/Graphics/SVG/1.1/DTD/svg11.dtd">
<svg version="1.1" xmlns="http://www.w3.org/2000/svg" xmlns:xlink="http://www.w3.org/1999/xlink" viewBox="0 0 132.764 141.455">
 <g>
  <rect height="141.455" opacity="0" width="132.764" x="0" y="0"/>
  <path d="M66.3574 87.5C70.5566 87.5488 74.707 86.4746 79.8828 84.1309L127.979 62.1582C131.152 60.6934 132.764 57.8613 132.764 54.9316C132.764 52.0508 131.152 49.2188 127.979 47.7539L79.8828 25.7812C74.707 23.4375 70.5566 22.3633 66.3574 22.4121C62.207 22.3633 58.0566 23.4375 52.832 25.7812L4.78516 47.7539C1.61133 49.2188 0 52.0508 0 54.9316C0 57.8613 1.61133 60.6934 4.78516 62.1582L52.832 84.1309C58.0566 86.4746 62.207 87.5488 66.3574 87.5ZM66.3574 79.7852C63.1348 79.7852 59.9609 78.9551 55.8105 77.0508L10.8398 56.5918C9.96094 56.2012 9.57031 55.6152 9.57031 54.9316C9.57031 54.2969 9.96094 53.7109 10.8398 53.3203L55.8105 32.8613C59.9609 30.957 63.1348 30.127 66.3574 30.127C69.6289 30.127 72.7539 30.957 76.9531 32.8613L121.924 53.3203C122.754 53.7109 123.193 54.2969 123.193 54.9316C123.193 55.6152 122.754 56.2012 121.924 56.5918L76.9531 77.0508C72.7539 78.9551 69.6289 79.7852 66.3574 79.7852ZM19.043 91.6504C19.043 106.25 37.5977 118.604 66.3574 118.604C95.166 118.604 113.721 106.25 113.721 91.6504L113.721 65.8691L105.859 65.8691L105.859 91.6504C105.859 101.855 90.4297 111.23 66.3574 111.23C42.334 111.23 26.9043 101.855 26.9043 91.6504L26.9043 65.8691L19.043 65.8691ZM66.5527 60.498C71.8262 60.498 76.9043 58.1055 76.9043 54.9316C76.9043 51.8555 71.8262 49.5117 66.5527 49.5117C61.3281 49.5117 56.1523 51.8555 56.1523 54.9316C56.1523 58.1055 61.3281 60.498 66.5527 60.498ZM36.8652 73.3887L65.8203 58.0566L63.1348 53.0273L30.5176 70.0195ZM30.5176 121.289L36.8652 121.289L36.8652 73.3887L30.5176 70.2637ZM26.6602 122.266L26.6602 135.107C26.6602 138.965 29.1504 141.455 33.0078 141.455L34.3262 141.455C38.1836 141.455 40.6738 138.965 40.6738 135.107L40.6738 122.266C40.6738 118.408 38.1836 115.918 34.3262 115.918L33.0078 115.918C29.1504 115.918 26.6602 118.408 26.6602 122.266Z" fill="white" fill-opacity="0.85"/>
 </g>
</svg>
