<?xml version="1.0" encoding="UTF-8"?>
<!--Generator: Apple Native CoreSVG 360-->
<!DOCTYPE svg
PUBLIC "-//W3C//DTD SVG 1.1//EN"
       "http://www.w3.org/Graphics/SVG/1.1/DTD/svg11.dtd">
<svg version="1.1" xmlns="http://www.w3.org/2000/svg" xmlns:xlink="http://www.w3.org/1999/xlink" viewBox="0 0 97.3145 89.9902">
 <g>
  <rect height="89.9902" opacity="0" width="97.3145" x="0" y="0"/>
  <path d="M15.332 89.9902L82.0312 89.9902C92.2363 89.9902 97.3145 84.9121 97.3145 74.8535L97.3145 15.2344C97.3145 5.17578 92.2363 0.0976562 82.0312 0.0976562L15.332 0.0976562C5.12695 0.0976562 0 5.12695 0 15.2344L0 74.8535C0 84.9609 5.12695 89.9902 15.332 89.9902ZM14.5996 82.1289C10.2539 82.1289 7.86133 79.834 7.86133 75.293L7.86133 29.248C7.86133 24.7559 10.2539 22.4121 14.5996 22.4121L82.666 22.4121C87.0117 22.4121 89.4531 24.7559 89.4531 29.248L89.4531 75.293C89.4531 79.834 87.0117 82.1289 82.666 82.1289ZM39.1602 39.9414L42.041 39.9414C43.75 39.9414 44.2871 39.4531 44.2871 37.7441L44.2871 34.8633C44.2871 33.1543 43.75 32.6172 42.041 32.6172L39.1602 32.6172C37.4512 32.6172 36.8652 33.1543 36.8652 34.8633L36.8652 37.7441C36.8652 39.4531 37.4512 39.9414 39.1602 39.9414ZM55.3711 39.9414L58.252 39.9414C59.9609 39.9414 60.5469 39.4531 60.5469 37.7441L60.5469 34.8633C60.5469 33.1543 59.9609 32.6172 58.252 32.6172L55.3711 32.6172C53.6621 32.6172 53.0762 33.1543 53.0762 34.8633L53.0762 37.7441C53.0762 39.4531 53.6621 39.9414 55.3711 39.9414ZM71.582 39.9414L74.4629 39.9414C76.1719 39.9414 76.7578 39.4531 76.7578 37.7441L76.7578 34.8633C76.7578 33.1543 76.1719 32.6172 74.4629 32.6172L71.582 32.6172C69.873 32.6172 69.3359 33.1543 69.3359 34.8633L69.3359 37.7441C69.3359 39.4531 69.873 39.9414 71.582 39.9414ZM22.9492 55.9082L25.7812 55.9082C27.5391 55.9082 28.0762 55.4199 28.0762 53.7109L28.0762 50.8301C28.0762 49.1211 27.5391 48.6328 25.7812 48.6328L22.9492 48.6328C21.1914 48.6328 20.6543 49.1211 20.6543 50.8301L20.6543 53.7109C20.6543 55.4199 21.1914 55.9082 22.9492 55.9082ZM39.1602 55.9082L42.041 55.9082C43.75 55.9082 44.2871 55.4199 44.2871 53.7109L44.2871 50.8301C44.2871 49.1211 43.75 48.6328 42.041 48.6328L39.1602 48.6328C37.4512 48.6328 36.8652 49.1211 36.8652 50.8301L36.8652 53.7109C36.8652 55.4199 37.4512 55.9082 39.1602 55.9082ZM55.3711 55.9082L58.252 55.9082C59.9609 55.9082 60.5469 55.4199 60.5469 53.7109L60.5469 50.8301C60.5469 49.1211 59.9609 48.6328 58.252 48.6328L55.3711 48.6328C53.6621 48.6328 53.0762 49.1211 53.0762 50.8301L53.0762 53.7109C53.0762 55.4199 53.6621 55.9082 55.3711 55.9082ZM71.582 55.9082L74.4629 55.9082C76.1719 55.9082 76.7578 55.4199 76.7578 53.7109L76.7578 50.8301C76.7578 49.1211 76.1719 48.6328 74.4629 48.6328L71.582 48.6328C69.873 48.6328 69.3359 49.1211 69.3359 50.8301L69.3359 53.7109C69.3359 55.4199 69.873 55.9082 71.582 55.9082ZM22.9492 71.9238L25.7812 71.9238C27.5391 71.9238 28.0762 71.3867 28.0762 69.6777L28.0762 66.7969C28.0762 65.0879 27.5391 64.5996 25.7812 64.5996L22.9492 64.5996C21.1914 64.5996 20.6543 65.0879 20.6543 66.7969L20.6543 69.6777C20.6543 71.3867 21.1914 71.9238 22.9492 71.9238ZM39.1602 71.9238L42.041 71.9238C43.75 71.9238 44.2871 71.3867 44.2871 69.6777L44.2871 66.7969C44.2871 65.0879 43.75 64.5996 42.041 64.5996L39.1602 64.5996C37.4512 64.5996 36.8652 65.0879 36.8652 66.7969L36.8652 69.6777C36.8652 71.3867 37.4512 71.9238 39.1602 71.9238ZM55.3711 71.9238L58.252 71.9238C59.9609 71.9238 60.5469 71.3867 60.5469 69.6777L60.5469 66.7969C60.5469 65.0879 59.9609 64.5996 58.252 64.5996L55.3711 64.5996C53.6621 64.5996 53.0762 65.0879 53.0762 66.7969L53.0762 69.6777C53.0762 71.3867 53.6621 71.9238 55.3711 71.9238Z" fill="white" fill-opacity="0.85"/>
 </g>
</svg>
