<svg width="833" height="452" viewBox="0 0 833 452" fill="none" xmlns="http://www.w3.org/2000/svg">
<rect x="1.59176" y="1.59176" width="829.816" height="93.8165" rx="46.9082" fill="#D9D9D9" fill-opacity="0.26" stroke="#9E704C" stroke-width="3.18352"/>
<path d="M38.0223 43.6099C37.4917 46.4396 37.2795 51.4625 40.6753 48.9157C44.9199 45.7322 56.5927 30.3452 56.5927 39.3652C56.5927 48.3851 55.5315 86.0568 63.4903 75.4451C71.4491 64.8334 76.7549 34.59 79.4078 49.977C82.0608 65.3639 76.7549 77.0368 82.5914 68.0169C84.2942 65.3852 85.4099 61.7147 86.0966 58.0596M86.0966 58.0596C87.7634 49.187 86.9022 40.4052 85.7749 46.7934C84.8015 52.3094 84.4233 56.8333 86.0966 58.0596ZM86.0966 58.0596C87.1595 58.8385 89.0502 58.2868 92.1419 55.8134C96.831 52.0621 99.4941 49.4159 100.565 47.8748M100.565 47.8748C101.312 46.8002 101.285 46.2628 100.631 46.2628C100.016 46.2628 100.035 47.0554 100.565 47.8748ZM100.565 47.8748C101.407 49.1754 103.538 50.5434 106.468 48.9158M119.202 44.1405C117.433 40.0727 113.153 31.5126 110.182 29.8147C106.468 27.6923 118.141 34.59 136.181 34.0594M145.731 39.3652L146.262 39.8958M160.057 43.0793C160.764 42.3719 162.922 40.957 165.893 40.957M173.322 39.3652C177.92 37.7734 187.223 35.0144 187.647 36.7122C188.178 38.8346 192.953 39.3652 205.157 36.7123C208.34 37.7735 205.157 45.7323 214.177 44.1405C218.598 41.4876 227.441 36.5001 227.441 37.7735C227.441 39.3652 224.258 46.7934 237.522 45.2017M263.974 25.0164C265.135 21.3958 266.582 18.4523 268.296 17.0805C273.03 13.2936 272.215 16.6562 267.766 21.3253C266.677 22.4679 265.39 23.711 263.974 25.0164ZM263.974 25.0164C260.376 36.2414 259.522 53.9756 261.929 51.5685M263.974 25.0164C258.206 30.3356 250.3 36.689 244.951 41.4874M276.255 51.0381C277.847 51.7456 281.455 52.2054 283.153 48.3852" stroke="white" stroke-width="5.30586" stroke-linecap="round"/>
<rect x="1.59176" y="119.592" width="829.816" height="93.8165" rx="46.9082" fill="#D9D9D9" fill-opacity="0.26" stroke="#9E704C" stroke-width="3.18352"/>
<path d="M36.5226 178.244C30.0539 179.711 55.223 156.241 55.9287 166.803C56.8108 180.005 62.9849 183.525 70.9238 178.244C78.8627 172.964 73.5701 154.481 83.2732 151.841C92.9763 149.2 86.8016 178.244 108.854 178.244C130.906 178.244 133.553 180.885 144.138 178.244C154.723 175.604 162.662 155.361 154.723 151.841C146.784 148.32 130.024 155.361 135.317 161.522C140.61 167.683 151.195 194.087 173.247 180.005C195.3 165.923 204.121 142.159 209.413 157.121C214.706 172.083 224.751 199.539 229.702 187.046C244.697 149.2 258.811 202.888 267.632 180.005C272.382 167.683 297.623 202.888 294.977 187.046C292.331 171.203 315.265 140.399 318.794 172.083" stroke="white" stroke-width="5.30586" stroke-linecap="round" stroke-linejoin="round"/>
<rect x="1.59176" y="239.592" width="819.816" height="92.8165" rx="46.4082" fill="#D9D9D9" fill-opacity="0.26" stroke="#9E704C" stroke-width="3.18352"/>
<path d="M98.4595 282.392C90.007 284.33 75.6377 287.817 85.7807 286.267C98.4595 284.33 103.742 280.455 98.4595 277.872C93.1765 275.29 81.5544 271.415 65.7059 277.872C49.8575 284.33 30.8394 300.473 38.2353 301.764C45.6312 303.056 58.0579 312.976 84.724 303.056C109.025 294.015 101.629 295.953 109.025 290.141C115.012 285.836 125.719 277.743 120.647 279.81C114.308 282.392 102.686 290.141 116.421 290.141C130.156 290.141 146.005 283.684 151.287 282.392C156.57 281.101 168.192 276.581 162.91 279.81C157.627 283.038 141.778 290.141 148.118 290.141C154.457 290.141 200.946 272.707 202.002 275.29C203.059 277.873 187.211 285.621 191.437 285.621C195.663 285.621 249.548 266.895 249.548 271.415C249.548 275.935 255.887 284.33 241.095 292.724C226.303 301.118 226.303 284.975 231.586 284.975C236.869 284.975 270.679 263.667 294.98 266.25C307.659 267.597 315.055 269.478 311.885 277.872C301.671 280.24 283.78 284.975 293.923 284.975C306.602 284.975 311.885 281.747 338.299 281.101C364.713 280.455 390.07 282.392 386.901 279.81C383.731 277.227 377.392 269.478 363.656 271.415C349.921 273.352 336.186 273.998 348.865 279.164C361.543 284.33 379.505 273.352 384.788 274.644C390.07 275.935 396.41 293.37 393.24 288.85C390.07 284.33 383.731 280.455 415.428 279.164" stroke="white" stroke-width="5.30586" stroke-linecap="round"/>
<rect x="1.59176" y="356.592" width="829.816" height="93.8165" rx="46.9082" fill="#D9D9D9" fill-opacity="0.26" stroke="#9E704C" stroke-width="3.18352" stroke-miterlimit="16"/>
<path d="M51.5546 418.804C36.1674 409.253 33.907 385.544 40.9431 380.071C55.2689 368.929 84.9819 363.092 93.4712 392.805C101.961 422.518 81.7901 432.068 64.2887 432.068C35.6371 432.068 22.3727 419.865 34.0456 412.967C45.7185 406.07 113.633 374.765 138.04 384.846C149.158 389.439 138.04 432.068 153.427 418.804C161.712 411.662 157.141 382.194 176.243 402.356C195.344 422.518 196.405 423.049 226.118 418.804" stroke="white" stroke-width="5.30586" stroke-linecap="round" stroke-linejoin="round"/>
<path d="M227.194 418.631C251.601 400.06 260.621 412.264 264.335 418.631C268.049 424.998 292.456 381.49 290.334 400.06C288.211 418.631 315.271 426.059 316.863 422.345C318.455 418.631 333.842 386.795 333.842 400.06C333.842 413.325 348.167 394.224 354.004 400.06C359.84 405.897 352.412 422.345 357.187 422.345C361.963 422.345 364.085 405.366 368.33 402.713C372.574 400.06 369.921 426.059 372.574 422.345C375.227 418.631 385.308 394.224 387.431 402.713C389.553 411.203 395.324 426.59 403.879 426.59C409.715 426.59 421.919 426.59 432.531 426.59" stroke="white" stroke-width="5.30586" stroke-linecap="round" stroke-linejoin="round"/>
</svg>
