<svg width="752" height="426" viewBox="0 0 752 426" fill="none" xmlns="http://www.w3.org/2000/svg">
<rect x="1.5" y="1.5" width="749" height="71.8" rx="35.9" fill="#D9D9D9" fill-opacity="0.26" stroke="#9E704C" stroke-width="3"/>
<path d="M58.3033 27.6146C51.6827 23.6377 37.6471 16.2142 34.4692 18.3352C30.4969 20.9865 19.904 39.5453 23.8763 39.5453C27.8487 39.5453 42.4143 38.2197 43.7384 36.894C45.0625 35.5684 64.9242 22.3122 62.276 20.9865C59.6278 19.6609 42.4143 9.05592 42.4143 28.9403C42.4143 48.8246 84.7859 44.8476 83.4618 43.522C82.1377 42.1963 68.8966 52.8013 74.193 54.127C79.4895 55.4526 123.185 17.0095 117.889 24.9632C112.592 32.917 76.8412 62.0807 87.4341 59.4295C98.027 56.7782 137.75 5.07888 141.723 10.3814C145.695 15.6839 135.102 48.8247 141.723 42.1965C148.343 35.5684 176.15 13.0328 173.501 22.3122C170.853 31.5916 136.426 60.7553 145.695 59.4297C154.964 58.104 194.687 26.2891 190.715 32.9172C186.743 39.5453 169.529 52.8015 176.15 52.8015C182.77 52.8015 222.494 26.2891 218.521 32.9172C214.549 39.5453 196.011 58.104 202.632 56.7784C209.253 55.4528 262.217 31.5916 258.245 34.2428C254.272 36.894 231.762 51.4759 241.031 52.8015C250.3 54.1272 278.106 47.499 284.727 46.1734C291.348 44.8478 312.533 35.5684 308.561 34.2428C304.589 32.9172 264.865 44.8478 275.458 43.5222C286.051 42.1965 312.533 24.9634 317.83 30.2659C323.126 35.5684 325.775 47.499 317.83 50.1503C309.885 52.8015 268.838 71.3603 280.755 60.7553C292.672 50.1503 332.395 28.9403 342.988 28.9403C353.581 28.9403 374.767 22.3122 373.443 36.894C372.118 51.4759 357.553 59.4297 376.091 52.8015C394.628 46.1734 435.676 19.6609 422.435 24.9634C409.194 30.2659 399.925 44.8478 411.842 40.8709C421.375 37.6894 432.586 32.4753 437 30.2659" stroke="white" stroke-width="5" stroke-linecap="round"/>
<rect x="1.5" y="89.3" width="749" height="71.8" rx="35.9" fill="#D9D9D9" fill-opacity="0.26" stroke="#9E704C" stroke-width="3"/>
<path d="M55.2863 123.541C54.7863 126.208 54.5863 130.941 57.7863 128.541C61.7863 125.541 72.7861 111.041 72.7861 119.541C72.7861 128.041 71.7861 163.542 79.2861 153.542C86.7861 143.542 91.7861 115.042 94.2861 129.542C96.7861 144.042 91.7861 155.042 97.2861 146.542C98.8908 144.062 99.9422 140.603 100.589 137.158M100.589 137.158C102.16 128.797 101.348 120.521 100.286 126.542C99.3688 131.74 99.0125 136.003 100.589 137.158ZM100.589 137.158C101.591 137.892 103.373 137.372 106.286 135.042C110.705 131.506 113.215 129.013 114.224 127.561M114.224 127.561C114.928 126.548 114.902 126.042 114.286 126.042C113.706 126.042 113.724 126.788 114.224 127.561ZM114.224 127.561C115.017 128.786 117.025 130.075 119.786 128.542M131.786 124.041C130.119 120.208 126.086 112.141 123.286 110.541C119.786 108.541 130.786 115.041 147.786 114.541M156.786 119.542L157.286 120.042M170.286 123.042C170.953 122.375 172.986 121.042 175.786 121.042M182.786 119.541C187.119 118.041 195.886 115.441 196.286 117.041C196.786 119.041 201.286 119.541 212.786 117.042C215.786 118.042 212.786 125.542 221.286 124.042C225.453 121.542 233.786 116.842 233.786 118.042C233.786 119.542 230.786 126.542 243.286 125.042M268.213 106.02C269.307 102.608 270.67 99.8341 272.286 98.5413C276.747 94.9728 275.979 98.1415 271.786 102.542C270.76 103.618 269.547 104.79 268.213 106.02ZM268.213 106.02C264.822 116.598 264.018 133.31 266.286 131.041M268.213 106.02C262.777 111.032 255.327 117.019 250.286 121.541M279.786 130.542C281.286 131.208 284.686 131.642 286.286 128.042" stroke="white" stroke-width="5" stroke-linecap="round"/>
<rect x="1.5" y="177.1" width="749" height="71.8" rx="35.9" fill="#D9D9D9" fill-opacity="0.26" stroke="#9E704C" stroke-width="3"/>
<path d="M32.0007 221.769C25.9049 223.152 49.6231 201.035 50.2881 210.987C51.1194 223.428 56.9376 226.746 64.4188 221.769C71.9001 216.793 66.9126 199.376 76.0563 196.888C85.2001 194.399 79.3813 221.769 100.163 221.769C120.944 221.769 123.438 224.257 133.413 221.769C143.388 219.281 150.869 200.205 143.388 196.888C135.906 193.57 120.113 200.205 125.1 206.011C130.088 211.817 140.063 236.698 160.844 223.428C181.625 210.158 189.938 187.764 194.925 201.864C199.913 215.964 209.379 241.836 214.044 230.063C228.175 194.399 241.475 244.992 249.787 223.428C254.263 211.816 278.05 244.992 275.556 230.063C273.063 215.134 294.675 186.106 298 215.964" stroke="white" stroke-width="5" stroke-linecap="round" stroke-linejoin="round"/>
<rect x="1.5" y="264.9" width="749" height="71.8" rx="35.9" fill="#D9D9D9" fill-opacity="0.26" stroke="#9E704C" stroke-width="3"/>
<path d="M88.3033 298.417C80.3381 300.243 66.7972 303.528 76.3555 302.068C88.3033 300.243 93.2817 296.592 88.3033 294.158C83.3249 291.724 72.3727 288.073 57.4379 294.158C42.5031 300.243 24.5813 315.455 31.5508 316.672C38.5204 317.889 50.2307 327.237 75.3597 317.889C98.2598 309.37 91.2902 311.195 98.2598 305.719C103.902 301.662 113.991 294.036 109.212 295.983C103.238 298.417 92.2859 305.719 105.229 305.719C118.173 305.719 133.108 299.634 138.086 298.417C143.064 297.2 154.017 292.941 149.038 295.983C144.06 299.026 129.125 305.719 135.099 305.719C141.073 305.719 184.882 289.29 185.878 291.724C186.873 294.158 171.938 301.46 175.921 301.46C179.904 301.46 230.682 283.813 230.682 288.073C230.682 292.332 236.656 300.243 222.717 308.153C208.778 316.063 208.778 300.851 213.756 300.851C218.734 300.851 250.595 280.771 273.495 283.205C285.443 284.474 292.413 286.247 289.426 294.158C279.801 296.389 262.941 300.851 272.5 300.851C284.447 300.851 289.426 297.808 314.317 297.2C339.209 296.591 363.104 298.417 360.117 295.983C357.13 293.549 351.156 286.247 338.213 288.073C325.269 289.898 312.326 290.507 324.274 295.374C336.222 300.242 353.148 289.898 358.126 291.115C363.104 292.332 369.078 308.761 366.091 304.502C363.104 300.242 357.13 296.591 387 295.374" stroke="white" stroke-width="5" stroke-linecap="round"/>
<rect x="1.5" y="352.7" width="749" height="71.8" rx="35.9" fill="#D9D9D9" fill-opacity="0.26" stroke="#9E704C" stroke-width="3" stroke-miterlimit="16"/>
<path d="M47.4854 403.043C32.9852 394.043 30.855 371.7 37.4855 366.543C50.9855 356.043 78.9856 350.543 86.9856 378.543C94.9856 406.543 75.9779 415.543 59.4854 415.543C32.4854 415.543 19.9856 404.043 30.9856 397.543C41.9856 391.043 105.985 361.543 128.986 371.043C139.463 375.37 128.986 415.543 143.486 403.043C151.293 396.312 146.986 368.543 164.986 387.543C182.986 406.543 183.986 407.043 211.986 403.043" stroke="white" stroke-width="5" stroke-linecap="round" stroke-linejoin="round"/>
<path d="M213 402.88C236 385.38 244.5 396.88 248 402.88C251.5 408.88 274.5 367.879 272.5 385.379C270.5 402.88 296 409.88 297.5 406.38C299 402.88 313.5 372.879 313.5 385.379C313.5 397.88 327 379.879 332.5 385.379C338 390.88 331 406.38 335.5 406.38C340 406.38 342 390.38 346 387.88C350 385.379 347.5 409.88 350 406.38C352.5 402.88 362 379.88 364 387.88C366 395.88 371.438 410.38 379.5 410.38C385 410.38 396.5 410.38 406.5 410.38" stroke="white" stroke-width="5" stroke-linecap="round" stroke-linejoin="round"/>
</svg>
