<svg width="491" height="74" viewBox="0 0 491 74" fill="none" xmlns="http://www.w3.org/2000/svg">
<path d="M29.1797 72.7734H18.5449V18.6328H0V9.36035H47.7246V18.6328H29.1797V72.7734ZM80.2441 13.9746C75.8936 13.9746 72.8174 11.1182 72.8174 6.9873C72.8174 2.85645 75.8936 0 80.2441 0C84.6387 0 87.7148 2.85645 87.7148 6.9873C87.7148 11.1182 84.6387 13.9746 80.2441 13.9746ZM100.679 72.7734H59.7217V64.5996H75.5859V32.8271H60.249V24.6533H85.5615V64.5996H100.679V72.7734ZM158.994 36.2109V72.7734H150.205V39.4629C150.205 35.0684 148.315 32.5635 145.063 32.5635C141.68 32.5635 139.57 35.4199 139.57 39.9463V72.7734H130.825V39.4629C130.825 35.0244 128.979 32.5635 125.684 32.5635C122.256 32.5635 120.059 35.4199 120.059 39.9463V72.7734H111.27V24.6533H120.234V31.8604H121.333C122.432 26.6309 125.815 23.6865 130.43 23.6865C134.912 23.6865 137.988 26.543 138.999 31.5967H140.098C141.196 26.6748 144.756 23.6865 149.458 23.6865C155.698 23.6865 158.994 28.0371 158.994 36.2109ZM202.192 59.7217H211.904C210.762 67.9834 202.588 73.7402 191.821 73.7402C178.11 73.7402 170.2 65.874 170.2 52.1631V44.6484C170.2 32.0361 178.682 23.6865 191.47 23.6865C204.126 23.6865 211.992 31.9922 211.992 45.3516V51.1963H180.264V53.5254C180.264 60.8643 184.79 65.6104 191.777 65.6104C197.095 65.6104 201.182 63.2812 202.192 59.7217ZM191.294 31.7725C184.395 31.7725 180.264 36.4746 180.264 44.3408H202.061C202.061 36.5186 198.018 31.7725 191.294 31.7725ZM237.129 11.2061H247.148V24.9609H265.737V33.2227H247.324V57.9639C247.324 62.2266 250.356 64.5996 255.806 64.5996C257.563 64.5996 264.507 64.5557 265.342 64.4678V72.6416C264.551 72.7734 256.465 72.9053 255.015 72.9053C242.358 72.9053 237.129 68.5986 237.129 57.9199V33.2227H224.473V24.9609H237.129V11.2061ZM296.191 73.5645C287.051 73.5645 280.942 67.7637 280.942 59.0625C280.942 50.4492 287.183 45.3516 298.696 44.6484L310.737 43.9453V39.9023C310.737 34.9365 307.529 32.124 301.904 32.124C297.202 32.124 293.774 34.1455 292.72 37.6611H282.7C283.579 29.3555 291.357 23.8623 302.168 23.8623C314.077 23.8623 320.845 29.707 320.845 39.9902V72.7734H311.133V66.0498H310.21C307.881 70.8398 302.739 73.5645 296.191 73.5645ZM299.487 65.2148C305.991 65.2148 310.737 61.04 310.737 55.2393V50.8447L300.234 51.416C294.214 51.7676 291.094 54.1846 291.094 58.4473C291.094 62.6221 294.346 65.2148 299.487 65.2148ZM362.109 73.5205C355.122 73.5205 350.244 70.4883 348.267 64.8633H347.388V72.7734H336.973V6.06445H347.563V32.5195H348.442C350.244 26.9385 355.166 23.8184 362.109 23.8184C373.184 23.8184 379.995 31.5967 379.995 44.3848V52.9541C379.995 65.7861 373.184 73.5205 362.109 73.5205ZM358.462 64.5996C365.317 64.5996 369.624 59.8975 369.624 52.3389V44.8242C369.624 37.2656 365.317 32.5195 358.462 32.5195C351.606 32.5195 347.3 37.2217 347.3 44.8242V52.3389C347.3 59.8975 351.606 64.5996 358.462 64.5996ZM434.487 72.7734H393.53V64.5996H409.307V14.2383H394.058V6.06445H419.502V64.5996H434.487V72.7734ZM480.366 59.7217H490.078C488.936 67.9834 480.762 73.7402 469.995 73.7402C456.284 73.7402 448.374 65.874 448.374 52.1631V44.6484C448.374 32.0361 456.855 23.6865 469.644 23.6865C482.3 23.6865 490.166 31.9922 490.166 45.3516V51.1963H458.438V53.5254C458.438 60.8643 462.964 65.6104 469.951 65.6104C475.269 65.6104 479.355 63.2812 480.366 59.7217ZM469.468 31.7725C462.568 31.7725 458.438 36.4746 458.438 44.3408H480.234C480.234 36.5186 476.191 31.7725 469.468 31.7725Z" fill="white"/>
</svg>
