<svg width="529" height="80" viewBox="0 0 529 80" fill="none" xmlns="http://www.w3.org/2000/svg">
<path d="M31.4492 78.4336H19.9873V20.082H0V10.0884H51.4365V20.082H31.4492V78.4336ZM86.4854 15.0615C81.7964 15.0615 78.481 11.9829 78.481 7.53076C78.481 3.07861 81.7964 0 86.4854 0C91.2217 0 94.5371 3.07861 94.5371 7.53076C94.5371 11.9829 91.2217 15.0615 86.4854 15.0615ZM108.509 78.4336H64.3667V69.624H81.4648V35.3804H64.9351V26.5708H92.2163V69.624H108.509V78.4336ZM171.36 39.0273V78.4336H161.888V42.5322C161.888 37.7959 159.851 35.0962 156.346 35.0962C152.699 35.0962 150.426 38.1748 150.426 43.0532V78.4336H141V42.5322C141 37.7485 139.011 35.0962 135.459 35.0962C131.765 35.0962 129.396 38.1748 129.396 43.0532V78.4336H119.924V26.5708H129.586V34.3384H130.77C131.954 28.7021 135.601 25.5288 140.574 25.5288C145.405 25.5288 148.721 28.6074 149.81 34.0542H150.994C152.178 28.7495 156.015 25.5288 161.083 25.5288C167.808 25.5288 171.36 30.2178 171.36 39.0273ZM217.918 64.3667H228.386C227.154 73.271 218.345 79.4756 206.741 79.4756C191.963 79.4756 183.438 70.9976 183.438 56.2202V48.1211C183.438 34.5278 192.579 25.5288 206.362 25.5288C220.002 25.5288 228.48 34.4805 228.48 48.8789V55.1782H194.284V57.6885C194.284 65.5981 199.163 70.7134 206.693 70.7134C212.424 70.7134 216.829 68.2031 217.918 64.3667ZM206.172 34.2437C198.736 34.2437 194.284 39.3115 194.284 47.7896H217.776C217.776 39.3589 213.419 34.2437 206.172 34.2437ZM255.572 12.0776H266.371V26.9023H286.406V35.8066H266.561V62.4722C266.561 67.0664 269.829 69.624 275.702 69.624C277.596 69.624 285.08 69.5767 285.979 69.4819V78.2915C285.127 78.4336 276.412 78.5757 274.849 78.5757C261.208 78.5757 255.572 73.9341 255.572 62.4248V35.8066H241.932V26.9023H255.572V12.0776ZM319.229 79.2861C309.377 79.2861 302.793 73.0342 302.793 63.6562C302.793 54.373 309.519 48.8789 321.928 48.1211L334.906 47.3633V43.0059C334.906 37.6538 331.448 34.6226 325.386 34.6226C320.318 34.6226 316.624 36.8013 315.487 40.5903H304.688C305.635 31.6387 314.019 25.7183 325.67 25.7183C338.505 25.7183 345.799 32.0176 345.799 43.1006V78.4336H335.332V71.187H334.337C331.827 76.3496 326.286 79.2861 319.229 79.2861ZM322.781 70.2871C329.791 70.2871 334.906 65.7876 334.906 59.5356V54.7993L323.586 55.415C317.097 55.7939 313.734 58.3989 313.734 62.9932C313.734 67.4927 317.239 70.2871 322.781 70.2871ZM390.273 79.2388C382.743 79.2388 377.485 75.9707 375.354 69.9082H374.407V78.4336H363.182V6.53613H374.596V35.0488H375.543C377.485 29.0337 382.79 25.6709 390.273 25.6709C402.209 25.6709 409.55 34.0542 409.55 47.8369V57.0728C409.55 70.9028 402.209 79.2388 390.273 79.2388ZM386.342 69.624C393.731 69.624 398.373 64.5562 398.373 56.4097V48.3105C398.373 40.1641 393.731 35.0488 386.342 35.0488C378.954 35.0488 374.312 40.1167 374.312 48.3105V56.4097C374.312 64.5562 378.954 69.624 386.342 69.624ZM468.281 78.4336H424.138V69.624H441.142V15.3457H424.707V6.53613H452.13V69.624H468.281V78.4336ZM517.728 64.3667H528.195C526.964 73.271 518.154 79.4756 506.55 79.4756C491.773 79.4756 483.248 70.9976 483.248 56.2202V48.1211C483.248 34.5278 492.389 25.5288 506.171 25.5288C519.812 25.5288 528.29 34.4805 528.29 48.8789V55.1782H494.094V57.6885C494.094 65.5981 498.972 70.7134 506.503 70.7134C512.234 70.7134 516.639 68.2031 517.728 64.3667ZM505.982 34.2437C498.546 34.2437 494.094 39.3115 494.094 47.7896H517.586C517.586 39.3589 513.229 34.2437 505.982 34.2437Z" fill="white"/>
</svg>
