<svg width="262" height="201" viewBox="0 0 262 201" fill="none" xmlns="http://www.w3.org/2000/svg">
<path d="M25.4915 85.0683L30.8571 72.6804L25.4915 85.0683ZM19.101 82.0611L11.5378 93.2437H11.5378L19.101 82.0611ZM25.4915 57.9541L30.8571 70.3421L25.4915 57.9541ZM19.101 60.9613L11.5378 49.7788H11.5378L19.101 60.9613ZM136.637 128.122L142.003 140.51L136.637 128.122ZM135.053 128.779L130.508 116.067L135.053 128.779ZM124.893 128.122L130.259 115.735L124.893 128.122ZM126.478 128.779L131.022 116.067L126.478 128.779ZM236.039 57.9541L230.673 70.3421V70.3421L236.039 57.9541ZM242.429 60.9613L249.992 49.7788V49.7788L242.429 60.9613ZM236.039 85.0683L241.404 97.4562L236.039 85.0683ZM242.429 82.0611L249.992 93.2437V93.2437L242.429 82.0611ZM136.637 14.9L142.003 2.51209L136.637 14.9ZM135.053 14.2434L130.508 26.9554L135.053 14.2434ZM124.893 14.9L119.527 2.51209L124.893 14.9ZM126.478 14.2434L131.022 26.9554L126.478 14.2434ZM79.1221 107.767C79.1221 100.311 73.078 94.2673 65.6221 94.2673C58.1663 94.2673 52.1221 100.311 52.1221 107.767H65.6221H79.1221ZM52.1221 156.836C52.1221 164.291 58.1663 170.336 65.6221 170.336C73.078 170.336 79.1221 164.291 79.1221 156.836H65.6221H52.1221ZM190.444 168.519L180.311 159.6V159.6L190.444 168.519ZM176.38 178.425L170.632 166.21V166.21L176.38 178.425ZM155.332 185.043L157.915 198.294H157.915L155.332 185.043ZM105.676 185.043L103.093 198.294V198.294L105.676 185.043ZM84.6272 178.425L78.879 190.64V190.64L84.6272 178.425ZM70.5632 168.519L80.6968 159.6V159.6L70.5632 168.519ZM261.6 71.1716C261.6 63.7157 255.556 57.6716 248.1 57.6716C240.644 57.6716 234.6 63.7157 234.6 71.1716H248.1H261.6ZM234.6 130.054C234.6 137.509 240.644 143.554 248.1 143.554C255.556 143.554 261.6 137.509 261.6 130.054H248.1H234.6ZM136.637 14.9L131.271 27.2879L230.673 70.3421L236.039 57.9541L241.404 45.5662L142.003 2.51209L136.637 14.9ZM236.039 85.0683L230.673 72.6804L131.271 115.735L136.637 128.122L142.003 140.51L241.404 97.4562L236.039 85.0683ZM124.893 128.122L130.259 115.735L30.8571 72.6804L25.4915 85.0683L20.1259 97.4562L119.527 140.51L124.893 128.122ZM25.4915 57.9541L30.8571 70.3421L130.259 27.2879L124.893 14.9L119.527 2.51209L20.1258 45.5662L25.4915 57.9541ZM25.4915 85.0683L30.8571 72.6804C28.99 71.8717 27.8179 71.363 26.9787 70.975C26.578 70.7897 26.3735 70.6869 26.2889 70.6424C26.1967 70.594 26.3642 70.6758 26.6642 70.8786L19.101 82.0611L11.5378 93.2437C13.8638 94.8168 17.3098 96.2365 20.1259 97.4562L25.4915 85.0683ZM25.4915 57.9541L20.1258 45.5662C17.3098 46.786 13.8638 48.2056 11.5378 49.7788L19.101 60.9613L26.6642 72.1438C26.3642 72.3467 26.1967 72.4285 26.2889 72.38C26.3735 72.3355 26.578 72.2327 26.9787 72.0475C27.8179 71.6595 28.99 71.1507 30.8571 70.3421L25.4915 57.9541ZM19.101 82.0611L26.6642 70.8786C26.715 70.913 26.8292 71.0205 26.9127 71.1833C26.983 71.3203 27 71.4329 27 71.5112C27 71.5896 26.983 71.7022 26.9127 71.8391C26.8292 72.0019 26.715 72.1094 26.6642 72.1438L19.101 60.9613L11.5378 49.7788C-3.84594 60.1834 -3.84594 82.839 11.5378 93.2437L19.101 82.0611ZM136.637 128.122L131.271 115.735C131.068 115.823 130.911 115.891 130.775 115.949C130.639 116.008 130.55 116.046 130.486 116.072C130.365 116.123 130.403 116.104 130.508 116.067L135.053 128.779L139.597 141.491C140.502 141.168 141.37 140.784 142.003 140.51L136.637 128.122ZM124.893 128.122L119.527 140.51C120.16 140.784 121.028 141.168 121.933 141.491L126.478 128.779L131.022 116.067C131.127 116.104 131.165 116.123 131.044 116.072C130.98 116.046 130.891 116.008 130.755 115.949C130.619 115.891 130.462 115.823 130.259 115.735L124.893 128.122ZM135.053 128.779L130.508 116.067C130.674 116.008 130.856 116.008 131.022 116.067L126.478 128.779L121.933 141.491C127.644 143.533 133.886 143.533 139.597 141.491L135.053 128.779ZM236.039 57.9541L230.673 70.3421C232.54 71.1507 233.712 71.6595 234.551 72.0475C234.952 72.2327 235.157 72.3355 235.241 72.38C235.333 72.4285 235.166 72.3467 234.866 72.1438L242.429 60.9613L249.992 49.7788C247.666 48.2056 244.22 46.786 241.404 45.5662L236.039 57.9541ZM236.039 85.0683L241.404 97.4562C244.22 96.2365 247.666 94.8168 249.992 93.2437L242.429 82.0611L234.866 70.8786C235.166 70.6758 235.333 70.594 235.241 70.6424C235.157 70.6869 234.952 70.7897 234.551 70.975C233.712 71.363 232.54 71.8717 230.673 72.6804L236.039 85.0683ZM242.429 60.9613L234.866 72.1438C234.815 72.1094 234.701 72.0019 234.617 71.8391C234.547 71.7022 234.53 71.5896 234.53 71.5112C234.53 71.4329 234.547 71.3203 234.617 71.1833C234.701 71.0205 234.815 70.913 234.866 70.8786L242.429 82.0611L249.992 93.2437C265.376 82.839 265.376 60.1834 249.992 49.7788L242.429 60.9613ZM136.637 14.9L142.003 2.51209C141.37 2.23806 140.502 1.85485 139.597 1.53128L135.053 14.2434L130.508 26.9554C130.403 26.918 130.365 26.8996 130.486 26.9501C130.55 26.9768 130.639 27.0149 130.775 27.0733C130.911 27.1319 131.068 27.1999 131.271 27.2879L136.637 14.9ZM124.893 14.9L130.259 27.2879C130.462 27.1999 130.619 27.1319 130.755 27.0733C130.891 27.0149 130.98 26.9768 131.044 26.9501C131.165 26.8996 131.127 26.918 131.022 26.9554L126.478 14.2434L121.933 1.53128C121.028 1.85484 120.16 2.23805 119.527 2.51209L124.893 14.9ZM135.053 14.2434L139.597 1.53128C133.886 -0.510427 127.644 -0.510427 121.933 1.53128L126.478 14.2434L131.022 26.9554C130.856 27.0149 130.674 27.0149 130.508 26.9554L135.053 14.2434ZM65.6221 107.767H52.1221V156.836H65.6221H79.1221V107.767H65.6221ZM195.381 107.767H181.881V156.836H195.381H208.881V107.767H195.381ZM195.383 156.836H181.883C181.883 156.85 181.923 157.768 180.311 159.6L190.444 168.519L200.578 177.439C205.486 171.863 208.883 164.841 208.883 156.836H195.383ZM190.444 168.519L180.311 159.6C178.618 161.523 175.536 163.902 170.632 166.21L176.38 178.425L182.129 190.64C189.274 187.277 195.75 182.924 200.578 177.439L190.444 168.519ZM176.38 178.425L170.632 166.21C165.796 168.485 159.742 170.429 152.749 171.792L155.332 185.043L157.915 198.294C166.665 196.588 174.915 194.034 182.129 190.64L176.38 178.425ZM155.332 185.043L152.749 171.792C145.78 173.151 138.21 173.867 130.504 173.867V187.367V200.867C139.837 200.867 149.141 200.004 157.915 198.294L155.332 185.043ZM130.504 187.367V173.867C122.797 173.867 115.228 173.151 108.258 171.792L105.676 185.043L103.093 198.294C111.866 200.004 121.17 200.867 130.504 200.867V187.367ZM105.676 185.043L108.258 171.792C101.266 170.429 95.2113 168.485 90.3755 166.21L84.6272 178.425L78.879 190.64C86.0923 194.034 94.3421 196.588 103.093 198.294L105.676 185.043ZM84.6272 178.425L90.3755 166.21C85.4718 163.902 82.3897 161.523 80.6968 159.6L70.5632 168.519L60.4296 177.439C65.2576 182.924 71.7335 187.277 78.879 190.64L84.6272 178.425ZM70.5632 168.519L80.6968 159.6C79.0842 157.768 79.1245 156.85 79.1245 156.836H65.6245H52.1245C52.1245 164.841 55.5211 171.863 60.4296 177.439L70.5632 168.519ZM248.1 71.1716H234.6V130.054H248.1H261.6V71.1716H248.1Z" fill="#7D7D7D"/>
</svg>
